<mxfile host="app.diagrams.net" modified="2020-10-25T17:27:28.237Z" agent="5.0 (Macintosh; Intel Mac OS X 10_14_6) AppleWebKit/537.36 (KHTML, like Gecko) Chrome/86.0.4240.111 Safari/537.36" etag="7DsEQDQPY8gC-nTyyu_Z" version="13.8.0" type="github">
  <diagram id="XRLAiwTjWuj6m0lgKd-L" name="Page-1">
    <mxGraphModel dx="1843" dy="530" grid="1" gridSize="10" guides="1" tooltips="1" connect="1" arrows="1" fold="1" page="1" pageScale="1" pageWidth="827" pageHeight="1169" math="0" shadow="0">
      <root>
        <mxCell id="0" />
        <mxCell id="1" parent="0" />
        <mxCell id="cHVb-Sj2rBA2ZM8bVBHV-2" value="" style="group" parent="1" vertex="1" connectable="0">
          <mxGeometry x="-170" y="160" width="357.5" height="579" as="geometry" />
        </mxCell>
        <mxCell id="PljOsR7fZy3H20qurfGT-2" value="" style="rounded=0;whiteSpace=wrap;html=1;strokeColor=#6c8ebf;fillColor=#368DFF;" parent="cHVb-Sj2rBA2ZM8bVBHV-2" vertex="1">
          <mxGeometry y="549" width="349.78" height="30" as="geometry" />
        </mxCell>
        <mxCell id="PljOsR7fZy3H20qurfGT-1" value="&lt;font color=&quot;#fdfff7&quot;&gt;智能学习VIP推荐&lt;/font&gt;" style="rounded=0;whiteSpace=wrap;html=1;strokeColor=#6c8ebf;fillColor=#368DFF;" parent="cHVb-Sj2rBA2ZM8bVBHV-2" vertex="1">
          <mxGeometry x="0.21538461538466436" width="349.7846153846153" height="31.636363636363637" as="geometry" />
        </mxCell>
        <mxCell id="PljOsR7fZy3H20qurfGT-3" value="" style="rounded=0;whiteSpace=wrap;html=1;" parent="cHVb-Sj2rBA2ZM8bVBHV-2" vertex="1">
          <mxGeometry y="27" width="349.78" height="394" as="geometry" />
        </mxCell>
        <mxCell id="PljOsR7fZy3H20qurfGT-6" value="&lt;h1&gt;&lt;font style=&quot;font-size: 11px&quot;&gt;为什么给小明推荐这些练习？&amp;nbsp;&lt;/font&gt;&lt;/h1&gt;&lt;div&gt;&lt;span style=&quot;font-size: 11px&quot;&gt;小明上周在亿以上的大数问题中错误率为50%。这个知识点小明可能没有理解，我们推荐用观看视频和练习来巩固。&lt;/span&gt;&lt;/div&gt;" style="text;html=1;strokeColor=none;fillColor=none;spacing=5;spacingTop=-20;whiteSpace=wrap;overflow=hidden;rounded=0;" parent="cHVb-Sj2rBA2ZM8bVBHV-2" vertex="1">
          <mxGeometry x="20.24615384615379" y="45.619636363636346" width="312.9538461538461" height="133.6530909090909" as="geometry" />
        </mxCell>
        <mxCell id="PljOsR7fZy3H20qurfGT-10" value="" style="rounded=1;whiteSpace=wrap;html=1;strokeColor=#CCCCCC;" parent="cHVb-Sj2rBA2ZM8bVBHV-2" vertex="1">
          <mxGeometry x="302.02117820323997" y="149.9987640449438" width="18.409425625920466" height="260.67415730337075" as="geometry" />
        </mxCell>
        <mxCell id="PljOsR7fZy3H20qurfGT-5" value="讲练测推荐模块1" style="rounded=0;whiteSpace=wrap;html=1;fillColor=#fff2cc;strokeColor=#d6b656;" parent="cHVb-Sj2rBA2ZM8bVBHV-2" vertex="1">
          <mxGeometry x="29.782592047128105" y="149.9987640449438" width="257.7319587628865" height="78.20224719101124" as="geometry" />
        </mxCell>
        <mxCell id="PljOsR7fZy3H20qurfGT-7" value="讲练测推荐模块2" style="rounded=0;whiteSpace=wrap;html=1;fillColor=#fff2cc;strokeColor=#d6b656;" parent="cHVb-Sj2rBA2ZM8bVBHV-2" vertex="1">
          <mxGeometry x="29.782592047128105" y="241.23471910112357" width="257.7319587628865" height="78.20224719101124" as="geometry" />
        </mxCell>
        <mxCell id="PljOsR7fZy3H20qurfGT-8" value="讲练测推荐模块3" style="rounded=0;whiteSpace=wrap;html=1;fillColor=#fff2cc;strokeColor=#d6b656;" parent="cHVb-Sj2rBA2ZM8bVBHV-2" vertex="1">
          <mxGeometry x="29.782592047128105" y="332.4706741573034" width="257.7319587628865" height="78.20224719101124" as="geometry" />
        </mxCell>
        <mxCell id="PljOsR7fZy3H20qurfGT-9" value="" style="rounded=1;whiteSpace=wrap;html=1;fillColor=#f5f5f5;fontColor=#333333;strokeColor=none;" parent="cHVb-Sj2rBA2ZM8bVBHV-2" vertex="1">
          <mxGeometry x="302.02117820323997" y="345.5043820224719" width="18.409425625920466" height="65.16853932584269" as="geometry" />
        </mxCell>
        <mxCell id="3JirW67J5OosZr8UNJjr-26" value="" style="rounded=0;whiteSpace=wrap;html=1;fontSize=5;align=left;fillColor=#D4E1F5;" parent="cHVb-Sj2rBA2ZM8bVBHV-2" vertex="1">
          <mxGeometry y="419.1600000000001" width="350" height="130.84" as="geometry" />
        </mxCell>
        <mxCell id="PljOsR7fZy3H20qurfGT-4" value="月度学情报告链接" style="rounded=1;whiteSpace=wrap;html=1;fillColor=#f8cecc;strokeColor=#b85450;" parent="cHVb-Sj2rBA2ZM8bVBHV-2" vertex="1">
          <mxGeometry x="20.25" y="490" width="122" height="42.77" as="geometry" />
        </mxCell>
        <mxCell id="3JirW67J5OosZr8UNJjr-16" value="" style="group" parent="cHVb-Sj2rBA2ZM8bVBHV-2" vertex="1" connectable="0">
          <mxGeometry x="7.5" y="422.02" width="350" height="136" as="geometry" />
        </mxCell>
        <mxCell id="3JirW67J5OosZr8UNJjr-2" value="您觉得这些模块是否会帮助小明的学习？" style="rounded=0;whiteSpace=wrap;html=1;align=left;strokeColor=none;fillColor=none;" parent="3JirW67J5OosZr8UNJjr-16" vertex="1">
          <mxGeometry y="2.000000000000012" width="335.86" height="31.64" as="geometry" />
        </mxCell>
        <mxCell id="3JirW67J5OosZr8UNJjr-25" value="" style="group" parent="3JirW67J5OosZr8UNJjr-16" vertex="1" connectable="0">
          <mxGeometry y="20.819999999999993" width="350" height="110" as="geometry" />
        </mxCell>
        <mxCell id="3JirW67J5OosZr8UNJjr-1" value="&lt;span&gt;我愿意今晚让小明花10分钟做这些练习&lt;/span&gt;（请勾选）" style="rounded=0;whiteSpace=wrap;html=1;align=left;strokeColor=none;fillColor=none;" parent="3JirW67J5OosZr8UNJjr-25" vertex="1">
          <mxGeometry width="335.86" height="31.64" as="geometry" />
        </mxCell>
        <mxCell id="3JirW67J5OosZr8UNJjr-10" value="" style="group" parent="3JirW67J5OosZr8UNJjr-25" vertex="1" connectable="0">
          <mxGeometry x="304.42999999999995" y="10.819999999999993" width="12.5" height="10" as="geometry" />
        </mxCell>
        <mxCell id="3JirW67J5OosZr8UNJjr-7" value="" style="whiteSpace=wrap;html=1;aspect=fixed;fontSize=5;align=left;" parent="3JirW67J5OosZr8UNJjr-10" vertex="1">
          <mxGeometry width="10" height="10" as="geometry" />
        </mxCell>
        <mxCell id="3JirW67J5OosZr8UNJjr-9" value="" style="html=1;aspect=fixed;strokeColor=none;shadow=0;align=center;verticalAlign=top;fillColor=#3B8DF1;shape=mxgraph.gcp2.check;fontSize=5;" parent="3JirW67J5OosZr8UNJjr-10" vertex="1">
          <mxGeometry width="12.5" height="10" as="geometry" />
        </mxCell>
        <mxCell id="cHVb-Sj2rBA2ZM8bVBHV-6" value="Y" style="text;html=1;strokeColor=none;fillColor=none;align=center;verticalAlign=middle;whiteSpace=wrap;rounded=0;" parent="3JirW67J5OosZr8UNJjr-16" vertex="1">
          <mxGeometry x="260.5" y="10.820000000000087" width="19.57" height="14" as="geometry" />
        </mxCell>
        <mxCell id="cHVb-Sj2rBA2ZM8bVBHV-36" value="N" style="text;html=1;strokeColor=none;fillColor=none;align=center;verticalAlign=middle;whiteSpace=wrap;rounded=0;" parent="3JirW67J5OosZr8UNJjr-16" vertex="1">
          <mxGeometry x="300.93" y="10.820000000000087" width="19.57" height="14" as="geometry" />
        </mxCell>
        <mxCell id="cHVb-Sj2rBA2ZM8bVBHV-60" value="&lt;span style=&quot;color: rgba(0 , 0 , 0 , 0) ; font-family: monospace ; font-size: 0px&quot;&gt;%3CmxGraphModel%3E%3Croot%3E%3CmxCell%20id%3D%220%22%2F%3E%3CmxCell%20id%3D%221%22%20parent%3D%220%22%2F%3E%3CmxCell%20id%3D%222%22%20value%3D%22%22%20style%3D%22group%22%20vertex%3D%221%22%20connectable%3D%220%22%20parent%3D%221%22%3E%3CmxGeometry%20x%3D%22-288%22%20y%3D%22128%22%20width%3D%22357.5%22%20height%3D%22579%22%20as%3D%22geometry%22%2F%3E%3C%2FmxCell%3E%3CmxCell%20id%3D%223%22%20value%3D%22%22%20style%3D%22rounded%3D0%3BwhiteSpace%3Dwrap%3Bhtml%3D1%3BstrokeColor%3D%236c8ebf%3BfillColor%3D%23368DFF%3B%22%20vertex%3D%221%22%20parent%3D%222%22%3E%3CmxGeometry%20y%3D%22549%22%20width%3D%22349.78%22%20height%3D%2230%22%20as%3D%22geometry%22%2F%3E%3C%2FmxCell%3E%3CmxCell%20id%3D%224%22%20value%3D%22%26lt%3Bfont%20color%3D%26quot%3B%23fdfff7%26quot%3B%26gt%3BTop%20learning%20recommendations%26lt%3B%2Ffont%26gt%3B%22%20style%3D%22rounded%3D0%3BwhiteSpace%3Dwrap%3Bhtml%3D1%3BstrokeColor%3D%236c8ebf%3BfillColor%3D%23368DFF%3B%22%20vertex%3D%221%22%20parent%3D%222%22%3E%3CmxGeometry%20x%3D%220.21538461538466436%22%20width%3D%22349.7846153846153%22%20height%3D%2231.636363636363637%22%20as%3D%22geometry%22%2F%3E%3C%2FmxCell%3E%3CmxCell%20id%3D%225%22%20value%3D%22%22%20style%3D%22rounded%3D0%3BwhiteSpace%3Dwrap%3Bhtml%3D1%3B%22%20vertex%3D%221%22%20parent%3D%222%22%3E%3CmxGeometry%20y%3D%2227%22%20width%3D%22349.78%22%20height%3D%22394%22%20as%3D%22geometry%22%2F%3E%3C%2FmxCell%3E%3CmxCell%20id%3D%226%22%20value%3D%22%26lt%3Bp%26gt%3B%26lt%3Bspan%20style%3D%26quot%3Bfont-size%3A%2011px%26quot%3B%26gt%3B%26lt%3Bb%26gt%3BWhy%20we%20recommend%20these%20exercises%20for%20Ming%3F%26lt%3B%2Fb%26gt%3B%26lt%3B%2Fspan%26gt%3B%26lt%3B%2Fp%26gt%3B%26lt%3Bp%26gt%3B%26lt%3Bfont%26gt%3B%26lt%3Bfont%20style%3D%26quot%3Bfont-size%3A%2010px%26quot%3B%26gt%3BMing%20missed%2050%25%20of%20his%20questions%20in%20%26quot%3Bnumbers%20greater%20than%20100%20million%26quot%3B%20in%20last%20week&#39;s%20exam.%20He%20may%20have%20difficulty%20understanding%20the%20concept.%20These%20videos-exercise%20modules%20are%20designed%20to%20help%20him%20reinforce%20these%20concepts.%26amp%3Bnbsp%3B%26lt%3B%2Ffont%26gt%3B%26lt%3B%2Ffont%26gt%3B%26lt%3B%2Fp%26gt%3B%22%20style%3D%22text%3Bhtml%3D1%3BstrokeColor%3Dnone%3BfillColor%3Dnone%3Bspacing%3D5%3BspacingTop%3D-20%3BwhiteSpace%3Dwrap%3Boverflow%3Dhidden%3Brounded%3D0%3B%22%20vertex%3D%221%22%20parent%3D%222%22%3E%3CmxGeometry%20x%3D%2220.24615384615379%22%20y%3D%2245.619636363636346%22%20width%3D%22312.9538461538461%22%20height%3D%22133.6530909090909%22%20as%3D%22geometry%22%2F%3E%3C%2FmxCell%3E%3CmxCell%20id%3D%227%22%20value%3D%22%22%20style%3D%22rounded%3D1%3BwhiteSpace%3Dwrap%3Bhtml%3D1%3BstrokeColor%3D%23CCCCCC%3B%22%20vertex%3D%221%22%20parent%3D%222%22%3E%3CmxGeometry%20x%3D%22302.02117820323997%22%20y%3D%22149.9987640449438%22%20width%3D%2218.409425625920466%22%20height%3D%22260.67415730337075%22%20as%3D%22geometry%22%2F%3E%3C%2FmxCell%3E%3CmxCell%20id%3D%228%22%20value%3D%22learn-practice-assess%20module%201%22%20style%3D%22rounded%3D0%3BwhiteSpace%3Dwrap%3Bhtml%3D1%3BfillColor%3D%23fff2cc%3BstrokeColor%3D%23d6b656%3B%22%20vertex%3D%221%22%20parent%3D%222%22%3E%3CmxGeometry%20x%3D%2229.782592047128105%22%20y%3D%22149.9987640449438%22%20width%3D%22257.7319587628865%22%20height%3D%2278.20224719101124%22%20as%3D%22geometry%22%2F%3E%3C%2FmxCell%3E%3CmxCell%20id%3D%229%22%20value%3D%22learn-practice-assess%20module%202%22%20style%3D%22rounded%3D0%3BwhiteSpace%3Dwrap%3Bhtml%3D1%3BfillColor%3D%23fff2cc%3BstrokeColor%3D%23d6b656%3B%22%20vertex%3D%221%22%20parent%3D%222%22%3E%3CmxGeometry%20x%3D%2229.782592047128105%22%20y%3D%22241.23471910112357%22%20width%3D%22257.7319587628865%22%20height%3D%2278.20224719101124%22%20as%3D%22geometry%22%2F%3E%3C%2FmxCell%3E%3CmxCell%20id%3D%2210%22%20value%3D%22learn-practice-assess%20module%203%22%20style%3D%22rounded%3D0%3BwhiteSpace%3Dwrap%3Bhtml%3D1%3BfillColor%3D%23fff2cc%3BstrokeColor%3D%23d6b656%3B%22%20vertex%3D%221%22%20parent%3D%222%22%3E%3CmxGeometry%20x%3D%2229.782592047128105%22%20y%3D%22332.4706741573034%22%20width%3D%22257.7319587628865%22%20height%3D%2278.20224719101124%22%20as%3D%22geometry%22%2F%3E%3C%2FmxCell%3E%3CmxCell%20id%3D%2211%22%20value%3D%22%22%20style%3D%22rounded%3D1%3BwhiteSpace%3Dwrap%3Bhtml%3D1%3BfillColor%3D%23f5f5f5%3BfontColor%3D%23333333%3BstrokeColor%3Dnone%3B%22%20vertex%3D%221%22%20parent%3D%222%22%3E%3CmxGeometry%20x%3D%22302.02117820323997%22%20y%3D%22345.5043820224719%22%20width%3D%2218.409425625920466%22%20height%3D%2265.16853932584269%22%20as%3D%22geometry%22%2F%3E%3C%2FmxCell%3E%3CmxCell%20id%3D%2212%22%20value%3D%22%22%20style%3D%22rounded%3D0%3BwhiteSpace%3Dwrap%3Bhtml%3D1%3BfontSize%3D5%3Balign%3Dleft%3BfillColor%3D%23D4E1F5%3B%22%20vertex%3D%221%22%20parent%3D%222%22%3E%3CmxGeometry%20y%3D%22419.1600000000001%22%20width%3D%22350%22%20height%3D%22130.84%22%20as%3D%22geometry%22%2F%3E%3C%2FmxCell%3E%3CmxCell%20id%3D%2213%22%20value%3D%22See%20Ming&#39;s%20learning%20report%20from%20September%22%20style%3D%22rounded%3D1%3BwhiteSpace%3Dwrap%3Bhtml%3D1%3BfillColor%3D%23f8cecc%3BstrokeColor%3D%23b85450%3B%22%20vertex%3D%221%22%20parent%3D%222%22%3E%3CmxGeometry%20x%3D%2257.997307692307686%22%20y%3D%22494.0009090909091%22%20width%3D%22220.91730769230767%22%20height%3D%2242.77236363636364%22%20as%3D%22geometry%22%2F%3E%3C%2FmxCell%3E%3CmxCell%20id%3D%2214%22%20value%3D%22%22%20style%3D%22group%22%20vertex%3D%221%22%20connectable%3D%220%22%20parent%3D%222%22%3E%3CmxGeometry%20x%3D%227.5%22%20y%3D%22422.02%22%20width%3D%22350%22%20height%3D%22136%22%20as%3D%22geometry%22%2F%3E%3C%2FmxCell%3E%3CmxCell%20id%3D%2215%22%20value%3D%22Do%20you%20find%20these%20useful%20for%20Ming&#39;s%20learning%3F%22%20style%3D%22rounded%3D0%3BwhiteSpace%3Dwrap%3Bhtml%3D1%3Balign%3Dleft%3BstrokeColor%3Dnone%3BfillColor%3Dnone%3B%22%20vertex%3D%221%22%20parent%3D%2214%22%3E%3CmxGeometry%20width%3D%22335.86%22%20height%3D%2231.64%22%20as%3D%22geometry%22%2F%3E%3C%2FmxCell%3E%3CmxCell%20id%3D%2216%22%20value%3D%22%22%20style%3D%22group%22%20vertex%3D%221%22%20connectable%3D%220%22%20parent%3D%2214%22%3E%3CmxGeometry%20y%3D%2220.819999999999993%22%20width%3D%22350%22%20height%3D%22110%22%20as%3D%22geometry%22%2F%3E%3C%2FmxCell%3E%3CmxCell%20id%3D%2217%22%20value%3D%22%26lt%3Bspan%26gt%3BWill%20you%20get%20Ming%20to%20spend%2010%20minutes%20on%20these%20today%3F%26amp%3Bnbsp%3B%26amp%3Bnbsp%3B%26lt%3B%2Fspan%26gt%3B%22%20style%3D%22rounded%3D0%3BwhiteSpace%3Dwrap%3Bhtml%3D1%3Balign%3Dleft%3BstrokeColor%3Dnone%3BfillColor%3Dnone%3B%22%20vertex%3D%221%22%20parent%3D%2216%22%3E%3CmxGeometry%20width%3D%22335.86%22%20height%3D%2231.64%22%20as%3D%22geometry%22%2F%3E%3C%2FmxCell%3E%3CmxCell%20id%3D%2218%22%20value%3D%22%22%20style%3D%22group%22%20vertex%3D%221%22%20connectable%3D%220%22%20parent%3D%2216%22%3E%3CmxGeometry%20x%3D%22304.42999999999995%22%20y%3D%2210.819999999999993%22%20width%3D%2212.5%22%20height%3D%2210%22%20as%3D%22geometry%22%2F%3E%3C%2FmxCell%3E%3CmxCell%20id%3D%2219%22%20value%3D%22%22%20style%3D%22whiteSpace%3Dwrap%3Bhtml%3D1%3Baspect%3Dfixed%3BfontSize%3D5%3Balign%3Dleft%3B%22%20vertex%3D%221%22%20parent%3D%2218%22%3E%3CmxGeometry%20width%3D%2210%22%20height%3D%2210%22%20as%3D%22geometry%22%2F%3E%3C%2FmxCell%3E%3CmxCell%20id%3D%2220%22%20value%3D%22%22%20style%3D%22html%3D1%3Baspect%3Dfixed%3BstrokeColor%3Dnone%3Bshadow%3D0%3Balign%3Dcenter%3BverticalAlign%3Dtop%3BfillColor%3D%233B8DF1%3Bshape%3Dmxgraph.gcp2.check%3BfontSize%3D5%3B%22%20vertex%3D%221%22%20parent%3D%2218%22%3E%3CmxGeometry%20width%3D%2212.5%22%20height%3D%2210%22%20as%3D%22geometry%22%2F%3E%3C%2FmxCell%3E%3CmxCell%20id%3D%2221%22%20value%3D%22Y%22%20style%3D%22text%3Bhtml%3D1%3BstrokeColor%3Dnone%3BfillColor%3Dnone%3Balign%3Dcenter%3BverticalAlign%3Dmiddle%3BwhiteSpace%3Dwrap%3Brounded%3D0%3B%22%20vertex%3D%221%22%20parent%3D%2214%22%3E%3CmxGeometry%20x%3D%22260.5%22%20y%3D%228.819999999999936%22%20width%3D%2219.57%22%20height%3D%2214%22%20as%3D%22geometry%22%2F%3E%3C%2FmxCell%3E%3CmxCell%20id%3D%2222%22%20value%3D%22N%22%20style%3D%22text%3Bhtml%3D1%3BstrokeColor%3Dnone%3BfillColor%3Dnone%3Balign%3Dcenter%3BverticalAlign%3Dmiddle%3BwhiteSpace%3Dwrap%3Brounded%3D0%3B%22%20vertex%3D%221%22%20parent%3D%2214%22%3E%3CmxGeometry%20x%3D%22300.93%22%20y%3D%228.819999999999936%22%20width%3D%2219.57%22%20height%3D%2214%22%20as%3D%22geometry%22%2F%3E%3C%2FmxCell%3E%3CmxCell%20id%3D%2223%22%20value%3D%22%22%20style%3D%22ellipse%3BwhiteSpace%3Dwrap%3Bhtml%3D1%3Baspect%3Dfixed%3B%22%20vertex%3D%221%22%20parent%3D%2214%22%3E%3CmxGeometry%20x%3D%22280.07%22%20y%3D%2212.82000000000005%22%20width%3D%2210%22%20height%3D%2210%22%20as%3D%22geometry%22%2F%3E%3C%2FmxCell%3E%3C%2Froot%3E%3C%2FmxGraphModel%3E&lt;/span&gt;" style="ellipse;whiteSpace=wrap;html=1;aspect=fixed;" parent="3JirW67J5OosZr8UNJjr-16" vertex="1">
          <mxGeometry x="320.5" y="12.82000000000005" width="10" height="10" as="geometry" />
        </mxCell>
        <mxCell id="cHVb-Sj2rBA2ZM8bVBHV-62" value="" style="group" parent="3JirW67J5OosZr8UNJjr-16" vertex="1" connectable="0">
          <mxGeometry x="280.07" y="12.82000000000005" width="10" height="10" as="geometry" />
        </mxCell>
        <mxCell id="cHVb-Sj2rBA2ZM8bVBHV-37" value="&lt;span style=&quot;color: rgba(0 , 0 , 0 , 0) ; font-family: monospace ; font-size: 0px&quot;&gt;%3CmxGraphModel%3E%3Croot%3E%3CmxCell%20id%3D%220%22%2F%3E%3CmxCell%20id%3D%221%22%20parent%3D%220%22%2F%3E%3CmxCell%20id%3D%222%22%20value%3D%22%22%20style%3D%22group%22%20vertex%3D%221%22%20connectable%3D%220%22%20parent%3D%221%22%3E%3CmxGeometry%20x%3D%22-288%22%20y%3D%22128%22%20width%3D%22357.5%22%20height%3D%22579%22%20as%3D%22geometry%22%2F%3E%3C%2FmxCell%3E%3CmxCell%20id%3D%223%22%20value%3D%22%22%20style%3D%22rounded%3D0%3BwhiteSpace%3Dwrap%3Bhtml%3D1%3BstrokeColor%3D%236c8ebf%3BfillColor%3D%23368DFF%3B%22%20vertex%3D%221%22%20parent%3D%222%22%3E%3CmxGeometry%20y%3D%22549%22%20width%3D%22349.78%22%20height%3D%2230%22%20as%3D%22geometry%22%2F%3E%3C%2FmxCell%3E%3CmxCell%20id%3D%224%22%20value%3D%22%26lt%3Bfont%20color%3D%26quot%3B%23fdfff7%26quot%3B%26gt%3BTop%20learning%20recommendations%26lt%3B%2Ffont%26gt%3B%22%20style%3D%22rounded%3D0%3BwhiteSpace%3Dwrap%3Bhtml%3D1%3BstrokeColor%3D%236c8ebf%3BfillColor%3D%23368DFF%3B%22%20vertex%3D%221%22%20parent%3D%222%22%3E%3CmxGeometry%20x%3D%220.21538461538466436%22%20width%3D%22349.7846153846153%22%20height%3D%2231.636363636363637%22%20as%3D%22geometry%22%2F%3E%3C%2FmxCell%3E%3CmxCell%20id%3D%225%22%20value%3D%22%22%20style%3D%22rounded%3D0%3BwhiteSpace%3Dwrap%3Bhtml%3D1%3B%22%20vertex%3D%221%22%20parent%3D%222%22%3E%3CmxGeometry%20y%3D%2227%22%20width%3D%22349.78%22%20height%3D%22394%22%20as%3D%22geometry%22%2F%3E%3C%2FmxCell%3E%3CmxCell%20id%3D%226%22%20value%3D%22%26lt%3Bp%26gt%3B%26lt%3Bspan%20style%3D%26quot%3Bfont-size%3A%2011px%26quot%3B%26gt%3B%26lt%3Bb%26gt%3BWhy%20we%20recommend%20these%20exercises%20for%20Ming%3F%26lt%3B%2Fb%26gt%3B%26lt%3B%2Fspan%26gt%3B%26lt%3B%2Fp%26gt%3B%26lt%3Bp%26gt%3B%26lt%3Bfont%26gt%3B%26lt%3Bfont%20style%3D%26quot%3Bfont-size%3A%2010px%26quot%3B%26gt%3BMing%20missed%2050%25%20of%20his%20questions%20in%20%26quot%3Bnumbers%20greater%20than%20100%20million%26quot%3B%20in%20last%20week&#39;s%20exam.%20He%20may%20have%20difficulty%20understanding%20the%20concept.%20These%20videos-exercise%20modules%20are%20designed%20to%20help%20him%20reinforce%20these%20concepts.%26amp%3Bnbsp%3B%26lt%3B%2Ffont%26gt%3B%26lt%3B%2Ffont%26gt%3B%26lt%3B%2Fp%26gt%3B%22%20style%3D%22text%3Bhtml%3D1%3BstrokeColor%3Dnone%3BfillColor%3Dnone%3Bspacing%3D5%3BspacingTop%3D-20%3BwhiteSpace%3Dwrap%3Boverflow%3Dhidden%3Brounded%3D0%3B%22%20vertex%3D%221%22%20parent%3D%222%22%3E%3CmxGeometry%20x%3D%2220.24615384615379%22%20y%3D%2245.619636363636346%22%20width%3D%22312.9538461538461%22%20height%3D%22133.6530909090909%22%20as%3D%22geometry%22%2F%3E%3C%2FmxCell%3E%3CmxCell%20id%3D%227%22%20value%3D%22%22%20style%3D%22rounded%3D1%3BwhiteSpace%3Dwrap%3Bhtml%3D1%3BstrokeColor%3D%23CCCCCC%3B%22%20vertex%3D%221%22%20parent%3D%222%22%3E%3CmxGeometry%20x%3D%22302.02117820323997%22%20y%3D%22149.9987640449438%22%20width%3D%2218.409425625920466%22%20height%3D%22260.67415730337075%22%20as%3D%22geometry%22%2F%3E%3C%2FmxCell%3E%3CmxCell%20id%3D%228%22%20value%3D%22learn-practice-assess%20module%201%22%20style%3D%22rounded%3D0%3BwhiteSpace%3Dwrap%3Bhtml%3D1%3BfillColor%3D%23fff2cc%3BstrokeColor%3D%23d6b656%3B%22%20vertex%3D%221%22%20parent%3D%222%22%3E%3CmxGeometry%20x%3D%2229.782592047128105%22%20y%3D%22149.9987640449438%22%20width%3D%22257.7319587628865%22%20height%3D%2278.20224719101124%22%20as%3D%22geometry%22%2F%3E%3C%2FmxCell%3E%3CmxCell%20id%3D%229%22%20value%3D%22learn-practice-assess%20module%202%22%20style%3D%22rounded%3D0%3BwhiteSpace%3Dwrap%3Bhtml%3D1%3BfillColor%3D%23fff2cc%3BstrokeColor%3D%23d6b656%3B%22%20vertex%3D%221%22%20parent%3D%222%22%3E%3CmxGeometry%20x%3D%2229.782592047128105%22%20y%3D%22241.23471910112357%22%20width%3D%22257.7319587628865%22%20height%3D%2278.20224719101124%22%20as%3D%22geometry%22%2F%3E%3C%2FmxCell%3E%3CmxCell%20id%3D%2210%22%20value%3D%22learn-practice-assess%20module%203%22%20style%3D%22rounded%3D0%3BwhiteSpace%3Dwrap%3Bhtml%3D1%3BfillColor%3D%23fff2cc%3BstrokeColor%3D%23d6b656%3B%22%20vertex%3D%221%22%20parent%3D%222%22%3E%3CmxGeometry%20x%3D%2229.782592047128105%22%20y%3D%22332.4706741573034%22%20width%3D%22257.7319587628865%22%20height%3D%2278.20224719101124%22%20as%3D%22geometry%22%2F%3E%3C%2FmxCell%3E%3CmxCell%20id%3D%2211%22%20value%3D%22%22%20style%3D%22rounded%3D1%3BwhiteSpace%3Dwrap%3Bhtml%3D1%3BfillColor%3D%23f5f5f5%3BfontColor%3D%23333333%3BstrokeColor%3Dnone%3B%22%20vertex%3D%221%22%20parent%3D%222%22%3E%3CmxGeometry%20x%3D%22302.02117820323997%22%20y%3D%22345.5043820224719%22%20width%3D%2218.409425625920466%22%20height%3D%2265.16853932584269%22%20as%3D%22geometry%22%2F%3E%3C%2FmxCell%3E%3CmxCell%20id%3D%2212%22%20value%3D%22%22%20style%3D%22rounded%3D0%3BwhiteSpace%3Dwrap%3Bhtml%3D1%3BfontSize%3D5%3Balign%3Dleft%3BfillColor%3D%23D4E1F5%3B%22%20vertex%3D%221%22%20parent%3D%222%22%3E%3CmxGeometry%20y%3D%22419.1600000000001%22%20width%3D%22350%22%20height%3D%22130.84%22%20as%3D%22geometry%22%2F%3E%3C%2FmxCell%3E%3CmxCell%20id%3D%2213%22%20value%3D%22See%20Ming&#39;s%20learning%20report%20from%20September%22%20style%3D%22rounded%3D1%3BwhiteSpace%3Dwrap%3Bhtml%3D1%3BfillColor%3D%23f8cecc%3BstrokeColor%3D%23b85450%3B%22%20vertex%3D%221%22%20parent%3D%222%22%3E%3CmxGeometry%20x%3D%2257.997307692307686%22%20y%3D%22494.0009090909091%22%20width%3D%22220.91730769230767%22%20height%3D%2242.77236363636364%22%20as%3D%22geometry%22%2F%3E%3C%2FmxCell%3E%3CmxCell%20id%3D%2214%22%20value%3D%22%22%20style%3D%22group%22%20vertex%3D%221%22%20connectable%3D%220%22%20parent%3D%222%22%3E%3CmxGeometry%20x%3D%227.5%22%20y%3D%22422.02%22%20width%3D%22350%22%20height%3D%22136%22%20as%3D%22geometry%22%2F%3E%3C%2FmxCell%3E%3CmxCell%20id%3D%2215%22%20value%3D%22Do%20you%20find%20these%20useful%20for%20Ming&#39;s%20learning%3F%22%20style%3D%22rounded%3D0%3BwhiteSpace%3Dwrap%3Bhtml%3D1%3Balign%3Dleft%3BstrokeColor%3Dnone%3BfillColor%3Dnone%3B%22%20vertex%3D%221%22%20parent%3D%2214%22%3E%3CmxGeometry%20width%3D%22335.86%22%20height%3D%2231.64%22%20as%3D%22geometry%22%2F%3E%3C%2FmxCell%3E%3CmxCell%20id%3D%2216%22%20value%3D%22%22%20style%3D%22group%22%20vertex%3D%221%22%20connectable%3D%220%22%20parent%3D%2214%22%3E%3CmxGeometry%20y%3D%2220.819999999999993%22%20width%3D%22350%22%20height%3D%22110%22%20as%3D%22geometry%22%2F%3E%3C%2FmxCell%3E%3CmxCell%20id%3D%2217%22%20value%3D%22%26lt%3Bspan%26gt%3BWill%20you%20get%20Ming%20to%20spend%2010%20minutes%20on%20these%20today%3F%26amp%3Bnbsp%3B%26amp%3Bnbsp%3B%26lt%3B%2Fspan%26gt%3B%22%20style%3D%22rounded%3D0%3BwhiteSpace%3Dwrap%3Bhtml%3D1%3Balign%3Dleft%3BstrokeColor%3Dnone%3BfillColor%3Dnone%3B%22%20vertex%3D%221%22%20parent%3D%2216%22%3E%3CmxGeometry%20width%3D%22335.86%22%20height%3D%2231.64%22%20as%3D%22geometry%22%2F%3E%3C%2FmxCell%3E%3CmxCell%20id%3D%2218%22%20value%3D%22%22%20style%3D%22group%22%20vertex%3D%221%22%20connectable%3D%220%22%20parent%3D%2216%22%3E%3CmxGeometry%20x%3D%22304.42999999999995%22%20y%3D%2210.819999999999993%22%20width%3D%2212.5%22%20height%3D%2210%22%20as%3D%22geometry%22%2F%3E%3C%2FmxCell%3E%3CmxCell%20id%3D%2219%22%20value%3D%22%22%20style%3D%22whiteSpace%3Dwrap%3Bhtml%3D1%3Baspect%3Dfixed%3BfontSize%3D5%3Balign%3Dleft%3B%22%20vertex%3D%221%22%20parent%3D%2218%22%3E%3CmxGeometry%20width%3D%2210%22%20height%3D%2210%22%20as%3D%22geometry%22%2F%3E%3C%2FmxCell%3E%3CmxCell%20id%3D%2220%22%20value%3D%22%22%20style%3D%22html%3D1%3Baspect%3Dfixed%3BstrokeColor%3Dnone%3Bshadow%3D0%3Balign%3Dcenter%3BverticalAlign%3Dtop%3BfillColor%3D%233B8DF1%3Bshape%3Dmxgraph.gcp2.check%3BfontSize%3D5%3B%22%20vertex%3D%221%22%20parent%3D%2218%22%3E%3CmxGeometry%20width%3D%2212.5%22%20height%3D%2210%22%20as%3D%22geometry%22%2F%3E%3C%2FmxCell%3E%3CmxCell%20id%3D%2221%22%20value%3D%22Y%22%20style%3D%22text%3Bhtml%3D1%3BstrokeColor%3Dnone%3BfillColor%3Dnone%3Balign%3Dcenter%3BverticalAlign%3Dmiddle%3BwhiteSpace%3Dwrap%3Brounded%3D0%3B%22%20vertex%3D%221%22%20parent%3D%2214%22%3E%3CmxGeometry%20x%3D%22260.5%22%20y%3D%228.819999999999936%22%20width%3D%2219.57%22%20height%3D%2214%22%20as%3D%22geometry%22%2F%3E%3C%2FmxCell%3E%3CmxCell%20id%3D%2222%22%20value%3D%22N%22%20style%3D%22text%3Bhtml%3D1%3BstrokeColor%3Dnone%3BfillColor%3Dnone%3Balign%3Dcenter%3BverticalAlign%3Dmiddle%3BwhiteSpace%3Dwrap%3Brounded%3D0%3B%22%20vertex%3D%221%22%20parent%3D%2214%22%3E%3CmxGeometry%20x%3D%22300.93%22%20y%3D%228.819999999999936%22%20width%3D%2219.57%22%20height%3D%2214%22%20as%3D%22geometry%22%2F%3E%3C%2FmxCell%3E%3CmxCell%20id%3D%2223%22%20value%3D%22%22%20style%3D%22ellipse%3BwhiteSpace%3Dwrap%3Bhtml%3D1%3Baspect%3Dfixed%3B%22%20vertex%3D%221%22%20parent%3D%2214%22%3E%3CmxGeometry%20x%3D%22280.07%22%20y%3D%2212.82000000000005%22%20width%3D%2210%22%20height%3D%2210%22%20as%3D%22geometry%22%2F%3E%3C%2FmxCell%3E%3C%2Froot%3E%3C%2FmxGraphModel%3E&lt;/span&gt;" style="ellipse;whiteSpace=wrap;html=1;aspect=fixed;" parent="cHVb-Sj2rBA2ZM8bVBHV-62" vertex="1">
          <mxGeometry width="10" height="10" as="geometry" />
        </mxCell>
        <mxCell id="cHVb-Sj2rBA2ZM8bVBHV-61" value="" style="ellipse;whiteSpace=wrap;html=1;aspect=fixed;fontColor=#333333;strokeColor=none;fillColor=#6666FF;" parent="cHVb-Sj2rBA2ZM8bVBHV-62" vertex="1">
          <mxGeometry x="1.4099999999999682" y="1.4099999999999504" width="7.18" height="7.18" as="geometry" />
        </mxCell>
        <mxCell id="OaXW7KyNl_oKpCHbyaBg-27" value="单次测评报告链接" style="rounded=1;whiteSpace=wrap;html=1;fillColor=#f8cecc;strokeColor=#b85450;" vertex="1" parent="cHVb-Sj2rBA2ZM8bVBHV-2">
          <mxGeometry x="190" y="490" width="122" height="42.77" as="geometry" />
        </mxCell>
        <mxCell id="OaXW7KyNl_oKpCHbyaBg-1" value="" style="group" vertex="1" connectable="0" parent="1">
          <mxGeometry x="-670" y="135" width="357.5" height="579" as="geometry" />
        </mxCell>
        <mxCell id="OaXW7KyNl_oKpCHbyaBg-2" value="" style="rounded=0;whiteSpace=wrap;html=1;strokeColor=#6c8ebf;fillColor=#368DFF;" vertex="1" parent="OaXW7KyNl_oKpCHbyaBg-1">
          <mxGeometry y="549" width="349.78" height="30" as="geometry" />
        </mxCell>
        <mxCell id="OaXW7KyNl_oKpCHbyaBg-3" value="&lt;font color=&quot;#fdfff7&quot;&gt;Top learning recommendations&lt;/font&gt;" style="rounded=0;whiteSpace=wrap;html=1;strokeColor=#6c8ebf;fillColor=#368DFF;" vertex="1" parent="OaXW7KyNl_oKpCHbyaBg-1">
          <mxGeometry x="0.21538461538466436" width="349.7846153846153" height="31.636363636363637" as="geometry" />
        </mxCell>
        <mxCell id="OaXW7KyNl_oKpCHbyaBg-4" value="" style="rounded=0;whiteSpace=wrap;html=1;" vertex="1" parent="OaXW7KyNl_oKpCHbyaBg-1">
          <mxGeometry y="27" width="349.78" height="394" as="geometry" />
        </mxCell>
        <mxCell id="OaXW7KyNl_oKpCHbyaBg-5" value="&lt;p&gt;&lt;span style=&quot;font-size: 11px&quot;&gt;&lt;b&gt;Why we recommend these exercises for Ming?&lt;/b&gt;&lt;/span&gt;&lt;/p&gt;&lt;p&gt;&lt;font&gt;&lt;font style=&quot;font-size: 10px&quot;&gt;Ming missed 50% of his questions in &quot;numbers greater than 100 million&quot; in last week&#39;s exam. He may have difficulty understanding the concept. These videos-exercise modules are designed to help him reinforce these concepts.&amp;nbsp;&lt;/font&gt;&lt;/font&gt;&lt;/p&gt;" style="text;html=1;strokeColor=none;fillColor=none;spacing=5;spacingTop=-20;whiteSpace=wrap;overflow=hidden;rounded=0;" vertex="1" parent="OaXW7KyNl_oKpCHbyaBg-1">
          <mxGeometry x="20.24615384615379" y="45.619636363636346" width="312.9538461538461" height="133.6530909090909" as="geometry" />
        </mxCell>
        <mxCell id="OaXW7KyNl_oKpCHbyaBg-6" value="" style="rounded=1;whiteSpace=wrap;html=1;strokeColor=#CCCCCC;" vertex="1" parent="OaXW7KyNl_oKpCHbyaBg-1">
          <mxGeometry x="302.02117820323997" y="149.9987640449438" width="18.409425625920466" height="260.67415730337075" as="geometry" />
        </mxCell>
        <mxCell id="OaXW7KyNl_oKpCHbyaBg-7" value="learn-practice-assess module 1" style="rounded=0;whiteSpace=wrap;html=1;fillColor=#fff2cc;strokeColor=#d6b656;" vertex="1" parent="OaXW7KyNl_oKpCHbyaBg-1">
          <mxGeometry x="29.782592047128105" y="149.9987640449438" width="257.7319587628865" height="78.20224719101124" as="geometry" />
        </mxCell>
        <mxCell id="OaXW7KyNl_oKpCHbyaBg-8" value="learn-practice-assess module 2" style="rounded=0;whiteSpace=wrap;html=1;fillColor=#fff2cc;strokeColor=#d6b656;" vertex="1" parent="OaXW7KyNl_oKpCHbyaBg-1">
          <mxGeometry x="29.782592047128105" y="241.23471910112357" width="257.7319587628865" height="78.20224719101124" as="geometry" />
        </mxCell>
        <mxCell id="OaXW7KyNl_oKpCHbyaBg-9" value="learn-practice-assess module 3" style="rounded=0;whiteSpace=wrap;html=1;fillColor=#fff2cc;strokeColor=#d6b656;" vertex="1" parent="OaXW7KyNl_oKpCHbyaBg-1">
          <mxGeometry x="29.782592047128105" y="332.4706741573034" width="257.7319587628865" height="78.20224719101124" as="geometry" />
        </mxCell>
        <mxCell id="OaXW7KyNl_oKpCHbyaBg-10" value="" style="rounded=1;whiteSpace=wrap;html=1;fillColor=#f5f5f5;fontColor=#333333;strokeColor=none;" vertex="1" parent="OaXW7KyNl_oKpCHbyaBg-1">
          <mxGeometry x="302.02117820323997" y="345.5043820224719" width="18.409425625920466" height="65.16853932584269" as="geometry" />
        </mxCell>
        <mxCell id="OaXW7KyNl_oKpCHbyaBg-11" value="" style="rounded=0;whiteSpace=wrap;html=1;fontSize=5;align=left;fillColor=#D4E1F5;" vertex="1" parent="OaXW7KyNl_oKpCHbyaBg-1">
          <mxGeometry y="419.1600000000001" width="350" height="130.84" as="geometry" />
        </mxCell>
        <mxCell id="OaXW7KyNl_oKpCHbyaBg-12" value="See Ming&#39;s learning report from September" style="rounded=1;whiteSpace=wrap;html=1;fillColor=#f8cecc;strokeColor=#b85450;" vertex="1" parent="OaXW7KyNl_oKpCHbyaBg-1">
          <mxGeometry x="57.997307692307686" y="494.0009090909091" width="220.91730769230767" height="42.77236363636364" as="geometry" />
        </mxCell>
        <mxCell id="OaXW7KyNl_oKpCHbyaBg-13" value="" style="group" vertex="1" connectable="0" parent="OaXW7KyNl_oKpCHbyaBg-1">
          <mxGeometry x="7.5" y="422.02" width="350" height="136" as="geometry" />
        </mxCell>
        <mxCell id="OaXW7KyNl_oKpCHbyaBg-14" value="Do you find these useful for Ming&#39;s learning?" style="rounded=0;whiteSpace=wrap;html=1;align=left;strokeColor=none;fillColor=none;" vertex="1" parent="OaXW7KyNl_oKpCHbyaBg-13">
          <mxGeometry y="2.000000000000012" width="335.86" height="31.64" as="geometry" />
        </mxCell>
        <mxCell id="OaXW7KyNl_oKpCHbyaBg-15" value="" style="group" vertex="1" connectable="0" parent="OaXW7KyNl_oKpCHbyaBg-13">
          <mxGeometry y="20.819999999999993" width="350" height="110" as="geometry" />
        </mxCell>
        <mxCell id="OaXW7KyNl_oKpCHbyaBg-16" value="&lt;span&gt;Will you get Ming to spend 10 minutes on these today?&amp;nbsp;&amp;nbsp;&lt;/span&gt;" style="rounded=0;whiteSpace=wrap;html=1;align=left;strokeColor=none;fillColor=none;" vertex="1" parent="OaXW7KyNl_oKpCHbyaBg-15">
          <mxGeometry width="335.86" height="31.64" as="geometry" />
        </mxCell>
        <mxCell id="OaXW7KyNl_oKpCHbyaBg-17" value="" style="group" vertex="1" connectable="0" parent="OaXW7KyNl_oKpCHbyaBg-15">
          <mxGeometry x="304.42999999999995" y="10.819999999999993" width="12.5" height="10" as="geometry" />
        </mxCell>
        <mxCell id="OaXW7KyNl_oKpCHbyaBg-18" value="" style="whiteSpace=wrap;html=1;aspect=fixed;fontSize=5;align=left;" vertex="1" parent="OaXW7KyNl_oKpCHbyaBg-17">
          <mxGeometry width="10" height="10" as="geometry" />
        </mxCell>
        <mxCell id="OaXW7KyNl_oKpCHbyaBg-19" value="" style="html=1;aspect=fixed;strokeColor=none;shadow=0;align=center;verticalAlign=top;fillColor=#3B8DF1;shape=mxgraph.gcp2.check;fontSize=5;" vertex="1" parent="OaXW7KyNl_oKpCHbyaBg-17">
          <mxGeometry width="12.5" height="10" as="geometry" />
        </mxCell>
        <mxCell id="OaXW7KyNl_oKpCHbyaBg-20" value="Y" style="text;html=1;strokeColor=none;fillColor=none;align=center;verticalAlign=middle;whiteSpace=wrap;rounded=0;" vertex="1" parent="OaXW7KyNl_oKpCHbyaBg-13">
          <mxGeometry x="260.5" y="10.820000000000087" width="19.57" height="14" as="geometry" />
        </mxCell>
        <mxCell id="OaXW7KyNl_oKpCHbyaBg-21" value="N" style="text;html=1;strokeColor=none;fillColor=none;align=center;verticalAlign=middle;whiteSpace=wrap;rounded=0;" vertex="1" parent="OaXW7KyNl_oKpCHbyaBg-13">
          <mxGeometry x="300.93" y="10.820000000000087" width="19.57" height="14" as="geometry" />
        </mxCell>
        <mxCell id="OaXW7KyNl_oKpCHbyaBg-22" value="&lt;span style=&quot;color: rgba(0 , 0 , 0 , 0) ; font-family: monospace ; font-size: 0px&quot;&gt;%3CmxGraphModel%3E%3Croot%3E%3CmxCell%20id%3D%220%22%2F%3E%3CmxCell%20id%3D%221%22%20parent%3D%220%22%2F%3E%3CmxCell%20id%3D%222%22%20value%3D%22%22%20style%3D%22group%22%20vertex%3D%221%22%20connectable%3D%220%22%20parent%3D%221%22%3E%3CmxGeometry%20x%3D%22-288%22%20y%3D%22128%22%20width%3D%22357.5%22%20height%3D%22579%22%20as%3D%22geometry%22%2F%3E%3C%2FmxCell%3E%3CmxCell%20id%3D%223%22%20value%3D%22%22%20style%3D%22rounded%3D0%3BwhiteSpace%3Dwrap%3Bhtml%3D1%3BstrokeColor%3D%236c8ebf%3BfillColor%3D%23368DFF%3B%22%20vertex%3D%221%22%20parent%3D%222%22%3E%3CmxGeometry%20y%3D%22549%22%20width%3D%22349.78%22%20height%3D%2230%22%20as%3D%22geometry%22%2F%3E%3C%2FmxCell%3E%3CmxCell%20id%3D%224%22%20value%3D%22%26lt%3Bfont%20color%3D%26quot%3B%23fdfff7%26quot%3B%26gt%3BTop%20learning%20recommendations%26lt%3B%2Ffont%26gt%3B%22%20style%3D%22rounded%3D0%3BwhiteSpace%3Dwrap%3Bhtml%3D1%3BstrokeColor%3D%236c8ebf%3BfillColor%3D%23368DFF%3B%22%20vertex%3D%221%22%20parent%3D%222%22%3E%3CmxGeometry%20x%3D%220.21538461538466436%22%20width%3D%22349.7846153846153%22%20height%3D%2231.636363636363637%22%20as%3D%22geometry%22%2F%3E%3C%2FmxCell%3E%3CmxCell%20id%3D%225%22%20value%3D%22%22%20style%3D%22rounded%3D0%3BwhiteSpace%3Dwrap%3Bhtml%3D1%3B%22%20vertex%3D%221%22%20parent%3D%222%22%3E%3CmxGeometry%20y%3D%2227%22%20width%3D%22349.78%22%20height%3D%22394%22%20as%3D%22geometry%22%2F%3E%3C%2FmxCell%3E%3CmxCell%20id%3D%226%22%20value%3D%22%26lt%3Bp%26gt%3B%26lt%3Bspan%20style%3D%26quot%3Bfont-size%3A%2011px%26quot%3B%26gt%3B%26lt%3Bb%26gt%3BWhy%20we%20recommend%20these%20exercises%20for%20Ming%3F%26lt%3B%2Fb%26gt%3B%26lt%3B%2Fspan%26gt%3B%26lt%3B%2Fp%26gt%3B%26lt%3Bp%26gt%3B%26lt%3Bfont%26gt%3B%26lt%3Bfont%20style%3D%26quot%3Bfont-size%3A%2010px%26quot%3B%26gt%3BMing%20missed%2050%25%20of%20his%20questions%20in%20%26quot%3Bnumbers%20greater%20than%20100%20million%26quot%3B%20in%20last%20week&#39;s%20exam.%20He%20may%20have%20difficulty%20understanding%20the%20concept.%20These%20videos-exercise%20modules%20are%20designed%20to%20help%20him%20reinforce%20these%20concepts.%26amp%3Bnbsp%3B%26lt%3B%2Ffont%26gt%3B%26lt%3B%2Ffont%26gt%3B%26lt%3B%2Fp%26gt%3B%22%20style%3D%22text%3Bhtml%3D1%3BstrokeColor%3Dnone%3BfillColor%3Dnone%3Bspacing%3D5%3BspacingTop%3D-20%3BwhiteSpace%3Dwrap%3Boverflow%3Dhidden%3Brounded%3D0%3B%22%20vertex%3D%221%22%20parent%3D%222%22%3E%3CmxGeometry%20x%3D%2220.24615384615379%22%20y%3D%2245.619636363636346%22%20width%3D%22312.9538461538461%22%20height%3D%22133.6530909090909%22%20as%3D%22geometry%22%2F%3E%3C%2FmxCell%3E%3CmxCell%20id%3D%227%22%20value%3D%22%22%20style%3D%22rounded%3D1%3BwhiteSpace%3Dwrap%3Bhtml%3D1%3BstrokeColor%3D%23CCCCCC%3B%22%20vertex%3D%221%22%20parent%3D%222%22%3E%3CmxGeometry%20x%3D%22302.02117820323997%22%20y%3D%22149.9987640449438%22%20width%3D%2218.409425625920466%22%20height%3D%22260.67415730337075%22%20as%3D%22geometry%22%2F%3E%3C%2FmxCell%3E%3CmxCell%20id%3D%228%22%20value%3D%22learn-practice-assess%20module%201%22%20style%3D%22rounded%3D0%3BwhiteSpace%3Dwrap%3Bhtml%3D1%3BfillColor%3D%23fff2cc%3BstrokeColor%3D%23d6b656%3B%22%20vertex%3D%221%22%20parent%3D%222%22%3E%3CmxGeometry%20x%3D%2229.782592047128105%22%20y%3D%22149.9987640449438%22%20width%3D%22257.7319587628865%22%20height%3D%2278.20224719101124%22%20as%3D%22geometry%22%2F%3E%3C%2FmxCell%3E%3CmxCell%20id%3D%229%22%20value%3D%22learn-practice-assess%20module%202%22%20style%3D%22rounded%3D0%3BwhiteSpace%3Dwrap%3Bhtml%3D1%3BfillColor%3D%23fff2cc%3BstrokeColor%3D%23d6b656%3B%22%20vertex%3D%221%22%20parent%3D%222%22%3E%3CmxGeometry%20x%3D%2229.782592047128105%22%20y%3D%22241.23471910112357%22%20width%3D%22257.7319587628865%22%20height%3D%2278.20224719101124%22%20as%3D%22geometry%22%2F%3E%3C%2FmxCell%3E%3CmxCell%20id%3D%2210%22%20value%3D%22learn-practice-assess%20module%203%22%20style%3D%22rounded%3D0%3BwhiteSpace%3Dwrap%3Bhtml%3D1%3BfillColor%3D%23fff2cc%3BstrokeColor%3D%23d6b656%3B%22%20vertex%3D%221%22%20parent%3D%222%22%3E%3CmxGeometry%20x%3D%2229.782592047128105%22%20y%3D%22332.4706741573034%22%20width%3D%22257.7319587628865%22%20height%3D%2278.20224719101124%22%20as%3D%22geometry%22%2F%3E%3C%2FmxCell%3E%3CmxCell%20id%3D%2211%22%20value%3D%22%22%20style%3D%22rounded%3D1%3BwhiteSpace%3Dwrap%3Bhtml%3D1%3BfillColor%3D%23f5f5f5%3BfontColor%3D%23333333%3BstrokeColor%3Dnone%3B%22%20vertex%3D%221%22%20parent%3D%222%22%3E%3CmxGeometry%20x%3D%22302.02117820323997%22%20y%3D%22345.5043820224719%22%20width%3D%2218.409425625920466%22%20height%3D%2265.16853932584269%22%20as%3D%22geometry%22%2F%3E%3C%2FmxCell%3E%3CmxCell%20id%3D%2212%22%20value%3D%22%22%20style%3D%22rounded%3D0%3BwhiteSpace%3Dwrap%3Bhtml%3D1%3BfontSize%3D5%3Balign%3Dleft%3BfillColor%3D%23D4E1F5%3B%22%20vertex%3D%221%22%20parent%3D%222%22%3E%3CmxGeometry%20y%3D%22419.1600000000001%22%20width%3D%22350%22%20height%3D%22130.84%22%20as%3D%22geometry%22%2F%3E%3C%2FmxCell%3E%3CmxCell%20id%3D%2213%22%20value%3D%22See%20Ming&#39;s%20learning%20report%20from%20September%22%20style%3D%22rounded%3D1%3BwhiteSpace%3Dwrap%3Bhtml%3D1%3BfillColor%3D%23f8cecc%3BstrokeColor%3D%23b85450%3B%22%20vertex%3D%221%22%20parent%3D%222%22%3E%3CmxGeometry%20x%3D%2257.997307692307686%22%20y%3D%22494.0009090909091%22%20width%3D%22220.91730769230767%22%20height%3D%2242.77236363636364%22%20as%3D%22geometry%22%2F%3E%3C%2FmxCell%3E%3CmxCell%20id%3D%2214%22%20value%3D%22%22%20style%3D%22group%22%20vertex%3D%221%22%20connectable%3D%220%22%20parent%3D%222%22%3E%3CmxGeometry%20x%3D%227.5%22%20y%3D%22422.02%22%20width%3D%22350%22%20height%3D%22136%22%20as%3D%22geometry%22%2F%3E%3C%2FmxCell%3E%3CmxCell%20id%3D%2215%22%20value%3D%22Do%20you%20find%20these%20useful%20for%20Ming&#39;s%20learning%3F%22%20style%3D%22rounded%3D0%3BwhiteSpace%3Dwrap%3Bhtml%3D1%3Balign%3Dleft%3BstrokeColor%3Dnone%3BfillColor%3Dnone%3B%22%20vertex%3D%221%22%20parent%3D%2214%22%3E%3CmxGeometry%20width%3D%22335.86%22%20height%3D%2231.64%22%20as%3D%22geometry%22%2F%3E%3C%2FmxCell%3E%3CmxCell%20id%3D%2216%22%20value%3D%22%22%20style%3D%22group%22%20vertex%3D%221%22%20connectable%3D%220%22%20parent%3D%2214%22%3E%3CmxGeometry%20y%3D%2220.819999999999993%22%20width%3D%22350%22%20height%3D%22110%22%20as%3D%22geometry%22%2F%3E%3C%2FmxCell%3E%3CmxCell%20id%3D%2217%22%20value%3D%22%26lt%3Bspan%26gt%3BWill%20you%20get%20Ming%20to%20spend%2010%20minutes%20on%20these%20today%3F%26amp%3Bnbsp%3B%26amp%3Bnbsp%3B%26lt%3B%2Fspan%26gt%3B%22%20style%3D%22rounded%3D0%3BwhiteSpace%3Dwrap%3Bhtml%3D1%3Balign%3Dleft%3BstrokeColor%3Dnone%3BfillColor%3Dnone%3B%22%20vertex%3D%221%22%20parent%3D%2216%22%3E%3CmxGeometry%20width%3D%22335.86%22%20height%3D%2231.64%22%20as%3D%22geometry%22%2F%3E%3C%2FmxCell%3E%3CmxCell%20id%3D%2218%22%20value%3D%22%22%20style%3D%22group%22%20vertex%3D%221%22%20connectable%3D%220%22%20parent%3D%2216%22%3E%3CmxGeometry%20x%3D%22304.42999999999995%22%20y%3D%2210.819999999999993%22%20width%3D%2212.5%22%20height%3D%2210%22%20as%3D%22geometry%22%2F%3E%3C%2FmxCell%3E%3CmxCell%20id%3D%2219%22%20value%3D%22%22%20style%3D%22whiteSpace%3Dwrap%3Bhtml%3D1%3Baspect%3Dfixed%3BfontSize%3D5%3Balign%3Dleft%3B%22%20vertex%3D%221%22%20parent%3D%2218%22%3E%3CmxGeometry%20width%3D%2210%22%20height%3D%2210%22%20as%3D%22geometry%22%2F%3E%3C%2FmxCell%3E%3CmxCell%20id%3D%2220%22%20value%3D%22%22%20style%3D%22html%3D1%3Baspect%3Dfixed%3BstrokeColor%3Dnone%3Bshadow%3D0%3Balign%3Dcenter%3BverticalAlign%3Dtop%3BfillColor%3D%233B8DF1%3Bshape%3Dmxgraph.gcp2.check%3BfontSize%3D5%3B%22%20vertex%3D%221%22%20parent%3D%2218%22%3E%3CmxGeometry%20width%3D%2212.5%22%20height%3D%2210%22%20as%3D%22geometry%22%2F%3E%3C%2FmxCell%3E%3CmxCell%20id%3D%2221%22%20value%3D%22Y%22%20style%3D%22text%3Bhtml%3D1%3BstrokeColor%3Dnone%3BfillColor%3Dnone%3Balign%3Dcenter%3BverticalAlign%3Dmiddle%3BwhiteSpace%3Dwrap%3Brounded%3D0%3B%22%20vertex%3D%221%22%20parent%3D%2214%22%3E%3CmxGeometry%20x%3D%22260.5%22%20y%3D%228.819999999999936%22%20width%3D%2219.57%22%20height%3D%2214%22%20as%3D%22geometry%22%2F%3E%3C%2FmxCell%3E%3CmxCell%20id%3D%2222%22%20value%3D%22N%22%20style%3D%22text%3Bhtml%3D1%3BstrokeColor%3Dnone%3BfillColor%3Dnone%3Balign%3Dcenter%3BverticalAlign%3Dmiddle%3BwhiteSpace%3Dwrap%3Brounded%3D0%3B%22%20vertex%3D%221%22%20parent%3D%2214%22%3E%3CmxGeometry%20x%3D%22300.93%22%20y%3D%228.819999999999936%22%20width%3D%2219.57%22%20height%3D%2214%22%20as%3D%22geometry%22%2F%3E%3C%2FmxCell%3E%3CmxCell%20id%3D%2223%22%20value%3D%22%22%20style%3D%22ellipse%3BwhiteSpace%3Dwrap%3Bhtml%3D1%3Baspect%3Dfixed%3B%22%20vertex%3D%221%22%20parent%3D%2214%22%3E%3CmxGeometry%20x%3D%22280.07%22%20y%3D%2212.82000000000005%22%20width%3D%2210%22%20height%3D%2210%22%20as%3D%22geometry%22%2F%3E%3C%2FmxCell%3E%3C%2Froot%3E%3C%2FmxGraphModel%3E&lt;/span&gt;" style="ellipse;whiteSpace=wrap;html=1;aspect=fixed;" vertex="1" parent="OaXW7KyNl_oKpCHbyaBg-13">
          <mxGeometry x="320.5" y="12.82000000000005" width="10" height="10" as="geometry" />
        </mxCell>
        <mxCell id="OaXW7KyNl_oKpCHbyaBg-23" value="" style="group" vertex="1" connectable="0" parent="OaXW7KyNl_oKpCHbyaBg-13">
          <mxGeometry x="280.07" y="12.82000000000005" width="10" height="10" as="geometry" />
        </mxCell>
        <mxCell id="OaXW7KyNl_oKpCHbyaBg-24" value="&lt;span style=&quot;color: rgba(0 , 0 , 0 , 0) ; font-family: monospace ; font-size: 0px&quot;&gt;%3CmxGraphModel%3E%3Croot%3E%3CmxCell%20id%3D%220%22%2F%3E%3CmxCell%20id%3D%221%22%20parent%3D%220%22%2F%3E%3CmxCell%20id%3D%222%22%20value%3D%22%22%20style%3D%22group%22%20vertex%3D%221%22%20connectable%3D%220%22%20parent%3D%221%22%3E%3CmxGeometry%20x%3D%22-288%22%20y%3D%22128%22%20width%3D%22357.5%22%20height%3D%22579%22%20as%3D%22geometry%22%2F%3E%3C%2FmxCell%3E%3CmxCell%20id%3D%223%22%20value%3D%22%22%20style%3D%22rounded%3D0%3BwhiteSpace%3Dwrap%3Bhtml%3D1%3BstrokeColor%3D%236c8ebf%3BfillColor%3D%23368DFF%3B%22%20vertex%3D%221%22%20parent%3D%222%22%3E%3CmxGeometry%20y%3D%22549%22%20width%3D%22349.78%22%20height%3D%2230%22%20as%3D%22geometry%22%2F%3E%3C%2FmxCell%3E%3CmxCell%20id%3D%224%22%20value%3D%22%26lt%3Bfont%20color%3D%26quot%3B%23fdfff7%26quot%3B%26gt%3BTop%20learning%20recommendations%26lt%3B%2Ffont%26gt%3B%22%20style%3D%22rounded%3D0%3BwhiteSpace%3Dwrap%3Bhtml%3D1%3BstrokeColor%3D%236c8ebf%3BfillColor%3D%23368DFF%3B%22%20vertex%3D%221%22%20parent%3D%222%22%3E%3CmxGeometry%20x%3D%220.21538461538466436%22%20width%3D%22349.7846153846153%22%20height%3D%2231.636363636363637%22%20as%3D%22geometry%22%2F%3E%3C%2FmxCell%3E%3CmxCell%20id%3D%225%22%20value%3D%22%22%20style%3D%22rounded%3D0%3BwhiteSpace%3Dwrap%3Bhtml%3D1%3B%22%20vertex%3D%221%22%20parent%3D%222%22%3E%3CmxGeometry%20y%3D%2227%22%20width%3D%22349.78%22%20height%3D%22394%22%20as%3D%22geometry%22%2F%3E%3C%2FmxCell%3E%3CmxCell%20id%3D%226%22%20value%3D%22%26lt%3Bp%26gt%3B%26lt%3Bspan%20style%3D%26quot%3Bfont-size%3A%2011px%26quot%3B%26gt%3B%26lt%3Bb%26gt%3BWhy%20we%20recommend%20these%20exercises%20for%20Ming%3F%26lt%3B%2Fb%26gt%3B%26lt%3B%2Fspan%26gt%3B%26lt%3B%2Fp%26gt%3B%26lt%3Bp%26gt%3B%26lt%3Bfont%26gt%3B%26lt%3Bfont%20style%3D%26quot%3Bfont-size%3A%2010px%26quot%3B%26gt%3BMing%20missed%2050%25%20of%20his%20questions%20in%20%26quot%3Bnumbers%20greater%20than%20100%20million%26quot%3B%20in%20last%20week&#39;s%20exam.%20He%20may%20have%20difficulty%20understanding%20the%20concept.%20These%20videos-exercise%20modules%20are%20designed%20to%20help%20him%20reinforce%20these%20concepts.%26amp%3Bnbsp%3B%26lt%3B%2Ffont%26gt%3B%26lt%3B%2Ffont%26gt%3B%26lt%3B%2Fp%26gt%3B%22%20style%3D%22text%3Bhtml%3D1%3BstrokeColor%3Dnone%3BfillColor%3Dnone%3Bspacing%3D5%3BspacingTop%3D-20%3BwhiteSpace%3Dwrap%3Boverflow%3Dhidden%3Brounded%3D0%3B%22%20vertex%3D%221%22%20parent%3D%222%22%3E%3CmxGeometry%20x%3D%2220.24615384615379%22%20y%3D%2245.619636363636346%22%20width%3D%22312.9538461538461%22%20height%3D%22133.6530909090909%22%20as%3D%22geometry%22%2F%3E%3C%2FmxCell%3E%3CmxCell%20id%3D%227%22%20value%3D%22%22%20style%3D%22rounded%3D1%3BwhiteSpace%3Dwrap%3Bhtml%3D1%3BstrokeColor%3D%23CCCCCC%3B%22%20vertex%3D%221%22%20parent%3D%222%22%3E%3CmxGeometry%20x%3D%22302.02117820323997%22%20y%3D%22149.9987640449438%22%20width%3D%2218.409425625920466%22%20height%3D%22260.67415730337075%22%20as%3D%22geometry%22%2F%3E%3C%2FmxCell%3E%3CmxCell%20id%3D%228%22%20value%3D%22learn-practice-assess%20module%201%22%20style%3D%22rounded%3D0%3BwhiteSpace%3Dwrap%3Bhtml%3D1%3BfillColor%3D%23fff2cc%3BstrokeColor%3D%23d6b656%3B%22%20vertex%3D%221%22%20parent%3D%222%22%3E%3CmxGeometry%20x%3D%2229.782592047128105%22%20y%3D%22149.9987640449438%22%20width%3D%22257.7319587628865%22%20height%3D%2278.20224719101124%22%20as%3D%22geometry%22%2F%3E%3C%2FmxCell%3E%3CmxCell%20id%3D%229%22%20value%3D%22learn-practice-assess%20module%202%22%20style%3D%22rounded%3D0%3BwhiteSpace%3Dwrap%3Bhtml%3D1%3BfillColor%3D%23fff2cc%3BstrokeColor%3D%23d6b656%3B%22%20vertex%3D%221%22%20parent%3D%222%22%3E%3CmxGeometry%20x%3D%2229.782592047128105%22%20y%3D%22241.23471910112357%22%20width%3D%22257.7319587628865%22%20height%3D%2278.20224719101124%22%20as%3D%22geometry%22%2F%3E%3C%2FmxCell%3E%3CmxCell%20id%3D%2210%22%20value%3D%22learn-practice-assess%20module%203%22%20style%3D%22rounded%3D0%3BwhiteSpace%3Dwrap%3Bhtml%3D1%3BfillColor%3D%23fff2cc%3BstrokeColor%3D%23d6b656%3B%22%20vertex%3D%221%22%20parent%3D%222%22%3E%3CmxGeometry%20x%3D%2229.782592047128105%22%20y%3D%22332.4706741573034%22%20width%3D%22257.7319587628865%22%20height%3D%2278.20224719101124%22%20as%3D%22geometry%22%2F%3E%3C%2FmxCell%3E%3CmxCell%20id%3D%2211%22%20value%3D%22%22%20style%3D%22rounded%3D1%3BwhiteSpace%3Dwrap%3Bhtml%3D1%3BfillColor%3D%23f5f5f5%3BfontColor%3D%23333333%3BstrokeColor%3Dnone%3B%22%20vertex%3D%221%22%20parent%3D%222%22%3E%3CmxGeometry%20x%3D%22302.02117820323997%22%20y%3D%22345.5043820224719%22%20width%3D%2218.409425625920466%22%20height%3D%2265.16853932584269%22%20as%3D%22geometry%22%2F%3E%3C%2FmxCell%3E%3CmxCell%20id%3D%2212%22%20value%3D%22%22%20style%3D%22rounded%3D0%3BwhiteSpace%3Dwrap%3Bhtml%3D1%3BfontSize%3D5%3Balign%3Dleft%3BfillColor%3D%23D4E1F5%3B%22%20vertex%3D%221%22%20parent%3D%222%22%3E%3CmxGeometry%20y%3D%22419.1600000000001%22%20width%3D%22350%22%20height%3D%22130.84%22%20as%3D%22geometry%22%2F%3E%3C%2FmxCell%3E%3CmxCell%20id%3D%2213%22%20value%3D%22See%20Ming&#39;s%20learning%20report%20from%20September%22%20style%3D%22rounded%3D1%3BwhiteSpace%3Dwrap%3Bhtml%3D1%3BfillColor%3D%23f8cecc%3BstrokeColor%3D%23b85450%3B%22%20vertex%3D%221%22%20parent%3D%222%22%3E%3CmxGeometry%20x%3D%2257.997307692307686%22%20y%3D%22494.0009090909091%22%20width%3D%22220.91730769230767%22%20height%3D%2242.77236363636364%22%20as%3D%22geometry%22%2F%3E%3C%2FmxCell%3E%3CmxCell%20id%3D%2214%22%20value%3D%22%22%20style%3D%22group%22%20vertex%3D%221%22%20connectable%3D%220%22%20parent%3D%222%22%3E%3CmxGeometry%20x%3D%227.5%22%20y%3D%22422.02%22%20width%3D%22350%22%20height%3D%22136%22%20as%3D%22geometry%22%2F%3E%3C%2FmxCell%3E%3CmxCell%20id%3D%2215%22%20value%3D%22Do%20you%20find%20these%20useful%20for%20Ming&#39;s%20learning%3F%22%20style%3D%22rounded%3D0%3BwhiteSpace%3Dwrap%3Bhtml%3D1%3Balign%3Dleft%3BstrokeColor%3Dnone%3BfillColor%3Dnone%3B%22%20vertex%3D%221%22%20parent%3D%2214%22%3E%3CmxGeometry%20width%3D%22335.86%22%20height%3D%2231.64%22%20as%3D%22geometry%22%2F%3E%3C%2FmxCell%3E%3CmxCell%20id%3D%2216%22%20value%3D%22%22%20style%3D%22group%22%20vertex%3D%221%22%20connectable%3D%220%22%20parent%3D%2214%22%3E%3CmxGeometry%20y%3D%2220.819999999999993%22%20width%3D%22350%22%20height%3D%22110%22%20as%3D%22geometry%22%2F%3E%3C%2FmxCell%3E%3CmxCell%20id%3D%2217%22%20value%3D%22%26lt%3Bspan%26gt%3BWill%20you%20get%20Ming%20to%20spend%2010%20minutes%20on%20these%20today%3F%26amp%3Bnbsp%3B%26amp%3Bnbsp%3B%26lt%3B%2Fspan%26gt%3B%22%20style%3D%22rounded%3D0%3BwhiteSpace%3Dwrap%3Bhtml%3D1%3Balign%3Dleft%3BstrokeColor%3Dnone%3BfillColor%3Dnone%3B%22%20vertex%3D%221%22%20parent%3D%2216%22%3E%3CmxGeometry%20width%3D%22335.86%22%20height%3D%2231.64%22%20as%3D%22geometry%22%2F%3E%3C%2FmxCell%3E%3CmxCell%20id%3D%2218%22%20value%3D%22%22%20style%3D%22group%22%20vertex%3D%221%22%20connectable%3D%220%22%20parent%3D%2216%22%3E%3CmxGeometry%20x%3D%22304.42999999999995%22%20y%3D%2210.819999999999993%22%20width%3D%2212.5%22%20height%3D%2210%22%20as%3D%22geometry%22%2F%3E%3C%2FmxCell%3E%3CmxCell%20id%3D%2219%22%20value%3D%22%22%20style%3D%22whiteSpace%3Dwrap%3Bhtml%3D1%3Baspect%3Dfixed%3BfontSize%3D5%3Balign%3Dleft%3B%22%20vertex%3D%221%22%20parent%3D%2218%22%3E%3CmxGeometry%20width%3D%2210%22%20height%3D%2210%22%20as%3D%22geometry%22%2F%3E%3C%2FmxCell%3E%3CmxCell%20id%3D%2220%22%20value%3D%22%22%20style%3D%22html%3D1%3Baspect%3Dfixed%3BstrokeColor%3Dnone%3Bshadow%3D0%3Balign%3Dcenter%3BverticalAlign%3Dtop%3BfillColor%3D%233B8DF1%3Bshape%3Dmxgraph.gcp2.check%3BfontSize%3D5%3B%22%20vertex%3D%221%22%20parent%3D%2218%22%3E%3CmxGeometry%20width%3D%2212.5%22%20height%3D%2210%22%20as%3D%22geometry%22%2F%3E%3C%2FmxCell%3E%3CmxCell%20id%3D%2221%22%20value%3D%22Y%22%20style%3D%22text%3Bhtml%3D1%3BstrokeColor%3Dnone%3BfillColor%3Dnone%3Balign%3Dcenter%3BverticalAlign%3Dmiddle%3BwhiteSpace%3Dwrap%3Brounded%3D0%3B%22%20vertex%3D%221%22%20parent%3D%2214%22%3E%3CmxGeometry%20x%3D%22260.5%22%20y%3D%228.819999999999936%22%20width%3D%2219.57%22%20height%3D%2214%22%20as%3D%22geometry%22%2F%3E%3C%2FmxCell%3E%3CmxCell%20id%3D%2222%22%20value%3D%22N%22%20style%3D%22text%3Bhtml%3D1%3BstrokeColor%3Dnone%3BfillColor%3Dnone%3Balign%3Dcenter%3BverticalAlign%3Dmiddle%3BwhiteSpace%3Dwrap%3Brounded%3D0%3B%22%20vertex%3D%221%22%20parent%3D%2214%22%3E%3CmxGeometry%20x%3D%22300.93%22%20y%3D%228.819999999999936%22%20width%3D%2219.57%22%20height%3D%2214%22%20as%3D%22geometry%22%2F%3E%3C%2FmxCell%3E%3CmxCell%20id%3D%2223%22%20value%3D%22%22%20style%3D%22ellipse%3BwhiteSpace%3Dwrap%3Bhtml%3D1%3Baspect%3Dfixed%3B%22%20vertex%3D%221%22%20parent%3D%2214%22%3E%3CmxGeometry%20x%3D%22280.07%22%20y%3D%2212.82000000000005%22%20width%3D%2210%22%20height%3D%2210%22%20as%3D%22geometry%22%2F%3E%3C%2FmxCell%3E%3C%2Froot%3E%3C%2FmxGraphModel%3E&lt;/span&gt;" style="ellipse;whiteSpace=wrap;html=1;aspect=fixed;" vertex="1" parent="OaXW7KyNl_oKpCHbyaBg-23">
          <mxGeometry width="10" height="10" as="geometry" />
        </mxCell>
        <mxCell id="OaXW7KyNl_oKpCHbyaBg-25" value="" style="ellipse;whiteSpace=wrap;html=1;aspect=fixed;fontColor=#333333;strokeColor=none;fillColor=#6666FF;" vertex="1" parent="OaXW7KyNl_oKpCHbyaBg-23">
          <mxGeometry x="1.4099999999999682" y="1.4099999999999504" width="7.18" height="7.18" as="geometry" />
        </mxCell>
      </root>
    </mxGraphModel>
  </diagram>
</mxfile>
